<?xml version="1.0" encoding="UTF-8"?>
<svg xmlns="http://www.w3.org/2000/svg" viewBox="0 0 1500 1148"
     preserveAspectRatio="xMidYMid meet" width="100%" font-family="JetBrains Mono, monospace">
<defs>
  <style type="text/css"><![CDATA[
    @import url('https://fonts.googleapis.com/css2?family=JetBrains+Mono:wght@500;600;700&family=Inter:wght@400;500;600&display=swap');
    .bg            { fill: #1F1B16; }
    .bg-soft       { fill: #1F1B16; }
    .box           { fill: #26221C; stroke: #4A3D32; stroke-width: 1; }
    .box-focal     { fill: #2E2620; stroke: #D97757; stroke-width: 1.4; }
    .box-future    { fill: #221E18; stroke: #3A312A; stroke-width: 1; stroke-dasharray: 4 3; }
    .box-soft      { fill: #232019; stroke: #3A312A; stroke-width: 1; }
    .label-h       { font-family: 'JetBrains Mono', monospace; fill: #F5F4ED; font-size: 16px; font-weight: 700; letter-spacing: 0.3px; }
    .label         { font-family: 'JetBrains Mono', monospace; fill: #F5F4ED; font-size: 14px; font-weight: 600; }
    .label-sub     { font-family: 'JetBrains Mono', monospace; fill: #9C8B7E; font-size: 11px; letter-spacing: 1.4px; text-transform: uppercase; }
    .label-tiny    { font-family: 'JetBrains Mono', monospace; fill: #6F5F54; font-size: 10px; letter-spacing: 1px; text-transform: uppercase; }
    .label-radial  { font-family: 'JetBrains Mono', monospace; fill: #E0D2C4; font-size: 13px; font-weight: 600; letter-spacing: 0.6px; }
    .label-accent  { font-family: 'JetBrains Mono', monospace; fill: #D97757; font-size: 12px; font-weight: 600; letter-spacing: 1px; text-transform: uppercase; }
    .label-inter   { font-family: 'Inter', system-ui, sans-serif; fill: #F5F4ED; font-size: 14px; font-weight: 500; }
    .conn          { stroke: #6F5F54; stroke-width: 1; fill: none; }
    .conn-soft     { stroke: #4A3D32; stroke-width: 1; fill: none; }
    .conn-dashed   { stroke: #4A3D32; stroke-width: 1; fill: none; stroke-dasharray: 4 3; }
    .accent-fill   { fill: #D97757; }
    .accent-bright { fill: #E89270; }
    .corner-mark   { font-family: 'JetBrains Mono', monospace; fill: #5A5750; font-size: 10px; letter-spacing: 1.4px; text-transform: uppercase; }
  ]]></style>
  <marker id="arrow" viewBox="0 0 10 10" refX="9" refY="5" markerWidth="5" markerHeight="5" orient="auto-start-reverse">
    <path d="M 0 0 L 10 5 L 0 10 z" fill="#6F5F54"/>
  </marker>
  <marker id="arrow-soft" viewBox="0 0 10 10" refX="9" refY="5" markerWidth="4" markerHeight="4" orient="auto-start-reverse">
    <path d="M 0 0 L 10 5 L 0 10 z" fill="#4A3D32"/>
  </marker>
</defs>
<!-- Window outer border + bg -->
<rect x="0.5" y="0.5" width="1499" height="1147" rx="10" fill="#2A2520" stroke="#3A312A" stroke-width="1"/>

  <!-- OS window title bar -->
  <path d="M 0 10 Q 0 0 10 0 L 1490 0 Q 1500 0 1500 10 L 1500 48 L 0 48 Z" fill="#2A2520"/>
  <line x1="0" y1="48" x2="1500" y2="48" stroke="#3A312A" stroke-width="1"/>
  <text x="20" y="29.0" font-family="JetBrains Mono, monospace" font-size="15" fill="#E0D2C4" font-weight="600">claude-ads.app — 03 · sub-skill ecosystem · B</text>
  <!-- Traffic lights (right-aligned) -->
  <circle cx="1416"   cy="24.0" r="9" fill="#fbbf24" stroke="#3A312A" stroke-width="0.7"/>
  <circle cx="1444"   cy="24.0" r="9" fill="#10b981"  stroke="#3A312A" stroke-width="0.7"/>
  <circle cx="1472" cy="24.0" r="9" fill="#ef4444"    stroke="#3A312A" stroke-width="0.7"/>

<!-- Content area: dark canvas, shifted down by TITLE_H -->
<g transform="translate(0, 48)">
  <rect class="bg" width="1500" height="1100"/>
  <path d="M 750.0 495.0 L 750.0 230.0" class="conn-soft"/>
<path d="M 890.0 550.0 L 1030.0 550.0" class="conn-soft"/>
<path d="M 750.0 605.0 L 750.0 905.0" class="conn-soft"/>
<path d="M 610.0 550.0 L 360.0 550.0" class="conn-soft"/>
<rect x="260.0" y="50.0" width="980" height="180" rx="8" class="box-soft"></rect>
<text x="278.0" y="76.0" class="label-accent" text-anchor="start">PLATFORM AUDIT</text>
<text x="1222.0" y="76.0" class="label-tiny" text-anchor="end">08</text>
<rect x="280.0" y="100.0" width="227.5" height="42" rx="4" class="box"></rect>
<text x="393.75" y="126.0" class="label" text-anchor="middle">ads-google</text>
<g transform="translate(290.0,112.0) scale(0.75)" fill="#9C8B7E"><path d="M3.9998 22.9291C1.7908 22.9291 0 21.1383 0 18.9293s1.7908-3.9998 3.9998-3.9998 3.9998 1.7908 3.9998 3.9998-1.7908 3.9998-3.9998 3.9998zm19.4643-6.0004L15.4632 3.072C14.3586 1.1587 11.9121.5028 9.9988 1.6074S7.4295 5.1585 8.5341 7.0718l8.0009 13.8567c1.1046 1.9133 3.5511 2.5679 5.4644 1.4646 1.9134-1.1046 2.568-3.5511 1.4647-5.4644zM7.5137 4.8438L1.5645 15.1484A4.5 4.5 0 0 1 4 14.4297c2.5597-.0075 4.6248 2.1585 4.4941 4.7148l3.2168-5.5723-3.6094-6.25c-.4499-.7793-.6322-1.6394-.5878-2.4784z"/></g>
<rect x="517.5" y="100.0" width="227.5" height="42" rx="4" class="box"></rect>
<text x="631.25" y="126.0" class="label" text-anchor="middle">ads-meta</text>
<g transform="translate(527.5,112.0) scale(0.75)" fill="#9C8B7E"><path d="M6.915 4.03c-1.968 0-3.683 1.28-4.871 3.113C.704 9.208 0 11.883 0 14.449c0 .706.07 1.369.21 1.973a6.624 6.624 0 0 0 .265.86 5.297 5.297 0 0 0 .371.761c.696 1.159 1.818 1.927 3.593 1.927 1.497 0 2.633-.671 3.965-2.444.76-1.012 1.144-1.626 2.663-4.32l.756-1.339.186-.325c.061.1.121.196.183.3l2.152 3.595c.724 1.21 1.665 2.556 2.47 3.314 1.046.987 1.992 1.22 3.06 1.22 1.075 0 1.876-.355 2.455-.843a3.743 3.743 0 0 0 .81-.973c.542-.939.861-2.127.861-3.745 0-2.72-.681-5.357-2.084-7.45-1.282-1.912-2.957-2.93-4.716-2.93-1.047 0-2.088.467-3.053 1.308-.652.57-1.257 1.29-1.82 2.05-.69-.875-1.335-1.547-1.958-2.056-1.182-.966-2.315-1.303-3.454-1.303zm10.16 2.053c1.147 0 2.188.758 2.992 1.999 1.132 1.748 1.647 4.195 1.647 6.4 0 1.548-.368 2.9-1.839 2.9-.58 0-1.027-.23-1.664-1.004-.496-.601-1.343-1.878-2.832-4.358l-.617-1.028a44.908 44.908 0 0 0-1.255-1.98c.07-.109.141-.224.211-.327 1.12-1.667 2.118-2.602 3.358-2.602zm-10.201.553c1.265 0 2.058.791 2.675 1.446.307.327.737.871 1.234 1.579l-1.02 1.566c-.757 1.163-1.882 3.017-2.837 4.338-1.191 1.649-1.81 1.817-2.486 1.817-.524 0-1.038-.237-1.383-.794-.263-.426-.464-1.13-.464-2.046 0-2.221.63-4.535 1.66-6.088.454-.687.964-1.226 1.533-1.533a2.264 2.264 0 0 1 1.088-.285z"/></g>
<rect x="755.0" y="100.0" width="227.5" height="42" rx="4" class="box"></rect>
<text x="868.75" y="126.0" class="label" text-anchor="middle">ads-linkedin</text>
<g transform="translate(765.0,112.0) scale(0.75)" fill="#9C8B7E"><path d="M20.5 2h-17A1.5 1.5 0 0 0 2 3.5v17A1.5 1.5 0 0 0 3.5 22h17a1.5 1.5 0 0 0 1.5-1.5v-17A1.5 1.5 0 0 0 20.5 2zM8 19H5v-9h3zM6.5 8.25A1.75 1.75 0 1 1 8.3 6.5a1.78 1.78 0 0 1-1.8 1.75zM19 19h-3v-4.74c0-1.42-.6-1.93-1.38-1.93A1.74 1.74 0 0 0 13 14.19a.66.66 0 0 0 0 .14V19h-3v-9h2.9v1.3a3.11 3.11 0 0 1 2.7-1.4c1.55 0 3.36.86 3.36 3.66z"/></g>
<rect x="992.5" y="100.0" width="227.5" height="42" rx="4" class="box"></rect>
<text x="1106.25" y="126.0" class="label" text-anchor="middle">ads-tiktok</text>
<g transform="translate(1002.5,112.0) scale(0.75)" fill="#9C8B7E"><path d="M12.525.02c1.31-.02 2.61-.01 3.91-.02.08 1.53.63 3.09 1.75 4.17 1.12 1.11 2.7 1.62 4.24 1.79v4.03c-1.44-.05-2.89-.35-4.2-.97-.57-.26-1.1-.59-1.62-.93-.01 2.92.01 5.84-.02 8.75-.08 1.4-.54 2.79-1.35 3.94-1.31 1.92-3.58 3.17-5.91 3.21-1.43.08-2.86-.31-4.08-1.03-2.02-1.19-3.44-3.37-3.65-5.71-.02-.5-.03-1-.01-1.49.18-1.9 1.12-3.72 2.58-4.96 1.66-1.44 3.98-2.13 6.15-1.72.02 1.48-.04 2.96-.04 4.44-.99-.32-2.15-.23-3.02.37-.63.41-1.11 1.04-1.36 1.75-.21.51-.15 1.07-.14 1.61.24 1.64 1.82 3.02 3.5 2.87 1.12-.01 2.19-.66 2.77-1.61.19-.33.4-.67.41-1.06.1-1.79.06-3.57.07-5.36.01-4.03-.01-8.05.02-12.07z"/></g>
<rect x="280.0" y="150.0" width="227.5" height="42" rx="4" class="box"></rect>
<text x="393.75" y="176.0" class="label" text-anchor="middle">ads-microsoft</text>
<g transform="translate(290.0,162.0) scale(0.75)" fill="#9C8B7E"><path d="M3 3h8.5v8.5H3zM12.5 3H21v8.5h-8.5zM3 12.5h8.5V21H3zM12.5 12.5H21V21h-8.5z"/></g>
<rect x="517.5" y="150.0" width="227.5" height="42" rx="4" class="box"></rect>
<text x="631.25" y="176.0" class="label" text-anchor="middle">ads-apple</text>
<g transform="translate(527.5,162.0) scale(0.75)" fill="#9C8B7E"><path d="M17.05 12.43c-.03-2.78 2.27-4.13 2.38-4.19-1.3-1.9-3.31-2.16-4.03-2.19-1.7-.18-3.34 1.01-4.2 1.01-.87 0-2.21-.99-3.65-.96-1.87.03-3.62 1.09-4.58 2.77-1.96 3.39-.5 8.41 1.4 11.17.93 1.34 2.04 2.86 3.49 2.81 1.4-.06 1.93-.91 3.62-.91 1.69 0 2.17.91 3.65.88 1.51-.03 2.46-1.37 3.38-2.72 1.06-1.56 1.5-3.07 1.52-3.15-.03-.01-2.92-1.12-2.95-4.45zM14.59 4.18c.77-.93 1.29-2.22 1.15-3.51-1.11.05-2.46.74-3.26 1.67-.71.82-1.34 2.13-1.17 3.4 1.24.1 2.5-.63 3.28-1.56z"/></g>
<rect x="755.0" y="150.0" width="227.5" height="42" rx="4" class="box"></rect>
<text x="868.75" y="176.0" class="label" text-anchor="middle">ads-amazon</text>
<g transform="translate(765.0,162.0) scale(0.75)" fill="none" stroke="#9C8B7E" stroke-width="2.2" stroke-linecap="round" stroke-linejoin="round"><path d="M3 13.5 Q12 19.5 21 13.5"/><path d="M18.5 11.5 L21 13.5 L19 15.5"/></g>
<rect x="992.5" y="150.0" width="227.5" height="42" rx="4" class="box"></rect>
<text x="1106.25" y="176.0" class="label" text-anchor="middle">ads-youtube</text>
<g transform="translate(1002.5,162.0) scale(0.75)" fill="#9C8B7E"><path d="M23.498 6.186a3.016 3.016 0 0 0-2.122-2.136C19.505 3.545 12 3.545 12 3.545s-7.505 0-9.377.505A3.017 3.017 0 0 0 .502 6.186C0 8.07 0 12 0 12s0 3.93.502 5.814a3.016 3.016 0 0 0 2.122 2.136c1.871.505 9.376.505 9.376.505s7.505 0 9.377-.505a3.015 3.015 0 0 0 2.122-2.136C24 15.93 24 12 24 12s0-3.93-.502-5.814z"/></g>
<rect x="1030.0" y="435.0" width="420" height="230" rx="8" class="box-soft"></rect>
<text x="1048.0" y="461.0" class="label-accent" text-anchor="start">CROSS-CUTTING</text>
<text x="1432.0" y="461.0" class="label-tiny" text-anchor="end">06</text>
<rect x="1050.0" y="485.0" width="185.0" height="42" rx="4" class="box"></rect>
<text x="1142.5" y="511.0" class="label" text-anchor="middle">ads-audit</text>
<rect x="1245.0" y="485.0" width="185.0" height="42" rx="4" class="box"></rect>
<text x="1337.5" y="511.0" class="label" text-anchor="middle">ads-creative</text>
<rect x="1050.0" y="535.0" width="185.0" height="42" rx="4" class="box"></rect>
<text x="1142.5" y="561.0" class="label" text-anchor="middle">ads-landing</text>
<rect x="1245.0" y="535.0" width="185.0" height="42" rx="4" class="box"></rect>
<text x="1337.5" y="561.0" class="label" text-anchor="middle">ads-budget</text>
<rect x="1050.0" y="585.0" width="185.0" height="42" rx="4" class="box"></rect>
<text x="1142.5" y="611.0" class="label" text-anchor="middle">ads-attribution</text>
<rect x="1245.0" y="585.0" width="185.0" height="42" rx="4" class="box"></rect>
<text x="1337.5" y="611.0" class="label" text-anchor="middle">ads-server-side-tracking</text>
<rect x="350.0" y="905.0" width="800" height="130" rx="8" class="box-soft"></rect>
<text x="368.0" y="931.0" class="label-accent" text-anchor="start">STRATEGY</text>
<text x="1132.0" y="931.0" class="label-tiny" text-anchor="end">05</text>
<rect x="370.0" y="955.0" width="144.0" height="42" rx="4" class="box"></rect>
<text x="442.0" y="981.0" class="label" text-anchor="middle">ads-plan</text>
<rect x="524.0" y="955.0" width="144.0" height="42" rx="4" class="box"></rect>
<text x="596.0" y="981.0" class="label" text-anchor="middle">ads-competitor</text>
<rect x="678.0" y="955.0" width="144.0" height="42" rx="4" class="box"></rect>
<text x="750.0" y="981.0" class="label" text-anchor="middle">ads-math</text>
<rect x="832.0" y="955.0" width="144.0" height="42" rx="4" class="box"></rect>
<text x="904.0" y="981.0" class="label" text-anchor="middle">ads-test</text>
<rect x="986.0" y="955.0" width="144.0" height="42" rx="4" class="box"></rect>
<text x="1058.0" y="981.0" class="label" text-anchor="middle">ads-dna</text>
<rect x="40.0" y="435.0" width="320" height="230" rx="8" class="box-soft"></rect>
<text x="58.0" y="461.0" class="label-accent" text-anchor="start">CREATIVE</text>
<text x="342.0" y="461.0" class="label-tiny" text-anchor="end">03</text>
<rect x="60.0" y="485.0" width="280.0" height="42" rx="4" class="box"></rect>
<text x="200.0" y="511.0" class="label" text-anchor="middle">ads-create</text>
<rect x="60.0" y="535.0" width="280.0" height="42" rx="4" class="box"></rect>
<text x="200.0" y="561.0" class="label" text-anchor="middle">ads-generate</text>
<rect x="60.0" y="585.0" width="280.0" height="42" rx="4" class="box"></rect>
<text x="200.0" y="611.0" class="label" text-anchor="middle">ads-photoshoot</text>
<rect x="610.0" y="495.0" width="280" height="110" rx="4" class="box-focal"><animate attributeName="opacity" values="0.85;1;0.85" dur="4.2s" repeatCount="indefinite"/></rect>
<text x="750.0" y="545.0" class="label-accent" text-anchor="middle">orchestrator</text>
<text x="750.0" y="565.0" class="label" text-anchor="middle">ads/SKILL.md</text>
  <text x="1480" y="1088" class="corner-mark" text-anchor="end">03 · sub-skill ecosystem · B</text>
</g>
</svg>
